<svg xmlns="http://www.w3.org/2000/svg" viewBox="0 0 64 64">
  <!-- Background -->
  <rect x="8" y="8" width="48" height="48" rx="8" ry="8" fill="#41b883"/>

  <!-- Bell Icon -->
  <path d="M32 18c-6.627 0-12 5.373-12 12v6h-2a2 2 0 0 0 0 4h28a2 2 0 0 0 0-4h-2v-6c0-6.627-5.373-12-12-12zm0 24a4 4 0 0 1-4-4h8a4 4 0 0 1-4 4z" fill="#fff"/>

  <!-- Progress Bars -->
  <rect x="22" y="40" width="4" height="12" rx="2" ry="2" fill="#fff"/>
  <rect x="30" y="36" width="4" height="16" rx="2" ry="2" fill="#fff"/>
  <rect x="38" y="44" width="4" height="8" rx="2" ry="2" fill="#fff"/>

  <!-- Clock Hands (Reminder Timing) -->
  <line x1="32" y1="28" x2="32" y2="22" stroke="#41b883" stroke-width="2" stroke-linecap="round"/>
  <line x1="32" y1="28" x2="36" y2="26" stroke="#41b883" stroke-width="2" stroke-linecap="round"/>

  <!-- Supporting Text -->
  <text x="32" y="58" font-size="5" font-family="Arial" fill="#fff" text-anchor="middle">ADAPTIVE REMINDERS</text>
</svg>
