<svg xmlns="http://www.w3.org/2000/svg" viewBox="0 0 64 64">
  <!-- Background -->
  <rect x="8" y="8" width="48" height="48" rx="8" ry="8" fill="#41b883"/>

  <!-- Cloud and Rain -->
  <path d="M28 26a8 8 0 0 1 0 16H20a8 8 0 0 1-1-15.9A6 6 0 1 1 28 26z" fill="#fff"/>
  <path d="M32 36h-8m4 2v4" stroke="#41b883" stroke-width="2" stroke-linecap="round"/>

  <!-- Rising Sun -->
  <circle cx="36" cy="26" r="6" fill="#41b883"/>
  <path d="M34 22v-3m4 3v-3m-4 14h-3m7 0h-3" stroke="#fff" stroke-width="2" stroke-linecap="round"/>

  <!-- Plant Growing -->
  <path d="M44 40c-2 0-4-2-4-4s2-4 4-4 4 2 4 4-2 4-4 4zm-4 4c0-2 2-4 4-4s4 2 4 4h-8z" fill="#fff"/>
  <path d="M44 44v4" stroke="#41b883" stroke-width="2" stroke-linecap="round"/>

  <!-- Supporting Text -->
  <text x="32" y="58" font-size="5" font-family="Arial" fill="#fff" text-anchor="middle">FAILURE SUPPORT</text>
</svg>
